<mxfile host="65bd71144e">
    <diagram id="xFLinfJ8xeH5gHDjwZ33" name="ページ1">
        <mxGraphModel dx="2491" dy="1963" grid="1" gridSize="10" guides="1" tooltips="1" connect="1" arrows="1" fold="1" page="1" pageScale="1" pageWidth="827" pageHeight="1169" math="0" shadow="0">
            <root>
                <mxCell id="0"/>
                <mxCell id="1" parent="0"/>
                <mxCell id="8" value="" style="endArrow=classic;startArrow=classic;html=1;" edge="1" parent="1">
                    <mxGeometry width="50" height="50" relative="1" as="geometry">
                        <mxPoint x="268.57" y="502.86" as="sourcePoint"/>
                        <mxPoint x="268.57" y="-539.9971428571429" as="targetPoint"/>
                    </mxGeometry>
                </mxCell>
                <mxCell id="7" value="GIThub" style="ellipse;whiteSpace=wrap;html=1;" parent="1" vertex="1">
                    <mxGeometry x="150" y="-110" width="490" height="200" as="geometry"/>
                </mxCell>
                <mxCell id="6" value="ローカル" style="ellipse;whiteSpace=wrap;html=1;" parent="1" vertex="1">
                    <mxGeometry x="160" y="140" width="490" height="200" as="geometry"/>
                </mxCell>
                <mxCell id="2" value="ブランチ/オリジン" style="rounded=0;whiteSpace=wrap;html=1;" parent="1" vertex="1">
                    <mxGeometry x="470" y="-10" width="120" height="60" as="geometry"/>
                </mxCell>
                <mxCell id="3" value="メイン" style="rounded=0;whiteSpace=wrap;html=1;" parent="1" vertex="1">
                    <mxGeometry x="210" y="190" width="120" height="60" as="geometry"/>
                </mxCell>
                <mxCell id="4" value="オリジンめいん" style="rounded=0;whiteSpace=wrap;html=1;" parent="1" vertex="1">
                    <mxGeometry x="210" y="-10" width="120" height="60" as="geometry"/>
                </mxCell>
                <mxCell id="5" value="ブランチ" style="rounded=0;whiteSpace=wrap;html=1;" parent="1" vertex="1">
                    <mxGeometry x="470" y="190" width="120" height="60" as="geometry"/>
                </mxCell>
            </root>
        </mxGraphModel>
    </diagram>
</mxfile>
